# AST/ASF file generated using VICON BodyLanguage
# -----------------------------------------------
:version 1.10
:name VICON
:units
  mass 1.0
  length 0.45
  angle deg
:documentation
   .ast/.asf automatically generated from VICON data using
   VICON BodyBuilder and BodyLanguage model FoxedUp or BRILLIANT.MOD
:root
   order TX TY TZ RX RY RZ
   axis XYZ
   position 0 0 0  
   orientation 0 0 0 
:bonedata
  begin
     id 1 
     name lhipjoint
     direction 0.576517 -0.752066 0.319413 
     length 2.45433 
     axis 0 0 0  XYZ
  end
  begin
     id 2 
     name lfemur
     direction 0.34202 -0.939693 0  
     length 7.54459  
     axis 0 0 20  XYZ
    dof rx ry rz
    limits (-160.0 20.0)
           (-70.0 70.0)
           (-60.0 70.0)
  end
  begin
     id 3 
     name ltibia
     direction 0.34202 -0.939693 0   
     length 7.73986   
     axis 0 0 20   XYZ
    dof rx
    limits (-10.0 170.0)
  end
  begin
     id 4 
     name lfoot
     direction 0.090693 -0.249177 0.964202   
     length 2.28437   
     axis -90 7.62852e-016 20   XYZ
    dof rx rz
    limits (-45.0 90.0)
           (-70.0 20.0)
  end
  begin
     id 5 
     name ltoes
     direction 1.5356e-011 -4.21928e-011 1   
     length 1.14243   
     axis -90 7.62852e-016 20   XYZ
    dof rx
    limits (-90.0 20.0)
  end
  begin
     id 6 
     name rhipjoint
     direction -0.573937 -0.753736 0.320122   
     length 2.44889  
     axis 0 0 0  XYZ 
  end
  begin
     id 7 
     name rfemur
     direction -0.34202 -0.939693 0   
     length 7.50166   
     axis 0 0 -20   XYZ
    dof rx ry rz
    limits (-160.0 20.0)
           (-70.0 70.0)
           (-70.0 60.0)
  end
  begin
     id 8 
     name rtibia
     direction -0.34202 -0.939693 0   
     length 7.54266   
     axis 0 0 -20   XYZ
    dof rx
    limits (-10.0 170.0)
 end
 begin
     id 9 
     name rfoot
     direction -0.114017 -0.31326 0.942798   
     length 2.34212  
     axis -90 -7.62852e-016 -20   XYZ
    dof rx rz
    limits (-45.0 90.0)
           (-20.0 70.0)
  end
  begin
     id 10 
     name rtoes
     direction -1.53557e-011 -4.21867e-011 1   
     length 1.16246   
     axis -90 -7.62852e-016 -20   XYZ
    dof rx
    limits (-90.0 20.0)
  end
  begin
     id 11 
     name lowerback
     direction -0.0228371 0.999155 -0.034167   
     length 2.0537   
     axis 0 0 0   XYZ
    dof rx ry rz
    limits (-20.0 45.0)
           (-30.0 30.0)
           (-30.0 30.0)
  end
  begin
     id 12 
     name upperback
     direction 0.0198981 0.999794 0.00389455   
     length 2.05302   
     axis 0 0 0   XYZ
    dof rx ry rz
    limits (-20.0 45.0)
           (-30.0 30.0)
           (-30.0 30.0)
  end
  begin
     id 13 
     name thorax
     direction 0.0304566 0.99935 0.0192987   
     length 2.05315   
     axis 0 0 0   XYZ
    dof rx ry rz
    limits (-20.0 45.0)
           (-30.0 30.0)
           (-30.0 30.0)
  end
  begin
     id 14 
     name lowerneck
     direction -0.0196762 0.99417 0.106017   
     length 1.82056   
     axis 0 0 0   XYZ
    dof rx ry rz
    limits (-20.0 45.0)
           (-30.0 30.0)
           (-30.0 30.0)
  end
  begin
     id 15 
     name upperneck
     direction 0.00517787 0.9802 -0.197944   
     length 1.83835   
     axis 0 0 0   XYZ
    dof rx ry rz
    limits (-20.0 45.0)
           (-30.0 30.0)
           (-30.0 30.0)
  end
  begin
     id 16
     name head
     direction 0.00211419 0.996945 -0.078081  
     length 1.85629  
     axis 0 0 0   XYZ
    dof rx ry rz
    limits (-20.0 45.0)
           (-30.0 30.0)
           (-30.0 30.0)
  end
  begin
     id 17 
     name lclavicle
     direction 0.930001 0.365811 -0.0357824  
     length 3.81961  
     axis 0 0 0   XYZ
    dof ry rz
    limits (-20.0 10.0)
           (0.0 20.0)
  end
  begin
     id 18 
     name lhumerus
     direction 1 -4.48968e-011 -3.06644e-027   
     length 5.14507   
     axis 180 -30 -90   XYZ
    dof rx ry rz
    limits (-60.0 90.0)
           (-90.0 90.0)
           (-90.0 90.0)
  end
  begin
     id 19
     name lradius
     direction 1 -4.48965e-011 9.06925e-028   
     length 3.50646   
     axis 180 -30 -90   XYZ
    dof rx
    limits (-10.0 170.0)
  end
  begin
     id 20
     name lwrist
     direction 1 -4.48957e-011 1.03922e-027   
     length 1.75323   
     axis -2.56395e-016 90 90   XYZ
    dof ry
    limits (-180.0 0.0)
 end
  begin
     id 21 
     name lhand
     direction 1 -4.48967e-011 2.08017e-027   
     length 0.629969   
     axis -1.32723e-015 90 90   XYZ
    dof rx rz
    limits (-90.0 90.0)
           (-45.0 45.0)
  end
  begin
     id 22 
     name lfingers
     direction 1 -4.49089e-011 4.20095e-027   
     length 0.507897   
     axis -2.6545e-015 90 90   XYZ
    dof rx
    limits (0.0 90.0)
  end
  begin
     id 23
     name lthumb
     direction 0.707107 -6.35001e-011 0.707107   
     length 0.729241   
     axis -90 45 5.05613e-014   XYZ
    dof rx rz
    limits (-45.0 45.0)
           (-45.0 45.0)
  end
  begin
     id 24 
     name rclavicle
     direction -0.881882 0.464123 -0.0829113   
     length 3.47515  
     axis 0 0 0   XYZ 
    dof ry rz
    limits (-10.0 20.0)
           (-20.0 0.0)
  end
  begin
     id 25 
     name rhumerus
     direction -1 -4.48961e-011 -1.55672e-027  
     length 5.232   
     axis 180 30 90   XYZ
    dof rx ry rz
    limits (-90.0 60.0)
           (-90.0 90.0)
           (-90.0 90.0)
  end
  begin
     id 26 
     name rradius
     direction -1 -4.48963e-011 6.18178e-029   
     length 3.65641   
     axis 180 30 90   XYZ
    dof rx
    limits (-10.0 170.0)
  end
  begin
     id 27 
     name rwrist
     direction -1 -4.48982e-011 1.04136e-027   
     length 1.8282   
     axis -2.56395e-016 -90 -90   XYZ
    dof ry
    limits (-180.0 0.0)
  end
  begin
     id 28
     name rhand
     direction -1 -4.48929e-011 2.07378e-027   
     length 0.656807   
     axis -1.32723e-015 -90 -90   XYZ
    dof rx rz
    limits (-90.0 90.0)
           (-45.0 45.0)
  end
  begin
     id 29
     name rfingers
     direction -1 -4.489e-011 4.13816e-027   
     length 0.529535   
     axis -2.6545e-015 -90 -90   XYZ
    dof rx
    limits (0.0 90.0)
  end
  begin
     id 30
     name rthumb
     direction -0.707107 -6.34843e-011 0.707107   
     length 0.760309   
     axis -90 -45 -5.05613e-014   XYZ
    dof rx rz
    limits (-45.0 45.0)
           (-45.0 45.0)
  end
:hierarchy
  begin
    root lhipjoint rhipjoint lowerback
    lhipjoint lfemur
    lfemur ltibia
    ltibia lfoot
    lfoot ltoes
    rhipjoint rfemur
    rfemur rtibia
    rtibia rfoot
    rfoot rtoes
    lowerback upperback
    upperback thorax
    thorax lowerneck lclavicle rclavicle
    lowerneck upperneck
    upperneck head
    lclavicle lhumerus
    lhumerus lradius
    lradius lwrist
    lwrist lhand lthumb
    lhand lfingers
    rclavicle rhumerus
    rhumerus rradius
    rradius rwrist
    rwrist rhand rthumb
    rhand rfingers
  end

#!OML:ASF H:\ManfredETheater\Project 1\Capture day 1\Session 1\subject.ASF
:FULLY-SPECIFIED
:DEGREES
16
root 15.6437 14.4856 35.3263 -157.342 -8.87953 183.423
lowerback 26.2386 2.22231 4.29601
upperback 3.3753 3.60935 2.39786
thorax -10.6946 1.22557 -0.954345
lowerneck -18.1337 0.283167 -2.4795
upperneck -11.6898 -1.42823 -4.64002
head -0.788033 -1.55327 -1.10674
rclavicle -3.18055e-015 4.29375e-014
rhumerus -26.5491 8.57108 -88.6914
rradius 88.7668
rwrist -10.1753
rhand -25.5101 1.15824
rfingers 7.12502
rthumb 1.01894 -28.8191
lclavicle -3.18055e-015 4.29375e-014
lhumerus -56.6308 -10.6146 85.0621
lradius 51.1804
lwrist 2.09867
lhand -27.3685 -18.8803
lfingers 7.12502
lthumb -0.776043 11.098
rfemur -35.7732 -5.24003 26.8028
rtibia 71.4242
rfoot -37.9884 -15.2677
rtoes -47.0489
lfemur -70.3538 8.63112 -20.5547
ltibia 99.4757
lfoot -20.7287 2.80996
ltoes -6.61699
17
root 15.527 14.4731 34.8649 -157.543 -7.91048 183.69
lowerback 25.4624 2.75131 4.07467
upperback 3.34155 4.20582 2.13383
thorax -10.2961 1.53624 -1.29684
lowerneck -18.2222 0.0358549 -2.37753
upperneck -11.1214 -1.65092 -4.53912
head -0.590296 -1.63948 -1.10733
rclavicle 2.06736e-014 1.51076e-014
rhumerus -26.0456 11.214 -88.929
rradius 92.8768
rwrist -9.81456
rhand -24.3406 1.49564
rfingers 7.12502
rthumb 2.14844 -28.4733
lclavicle 2.06736e-014 1.51076e-014
lhumerus -61.5598 -13.1376 85.8452
lradius 53.8811
lwrist 1.51482
lhand -26.6468 -19.3634
lfingers 7.12502
lthumb -0.0789835 10.6163
rfemur -33.0138 -5.13121 26.1108
rtibia 70.0878
rfoot -37.9348 -14.0146
rtoes -47.952
lfemur -73.0509 8.93383 -20.358
ltibia 97.3808
lfoot -21.3194 1.09364
ltoes -4.70467
18
root 15.4097 14.4671 34.3907 -157.713 -7.07951 183.957
lowerback 24.5625 3.29966 3.87289
upperback 3.27977 4.84548 1.91181
thorax -9.86036 1.87358 -1.59516
lowerneck -18.2604 -0.282957 -2.33164
upperneck -10.4859 -1.9423 -4.3901
head -0.378612 -1.75123 -1.08782
rclavicle -3.4191e-014 -1.35174e-014
rhumerus -25.746 13.6885 -88.8509
rradius 96.9861
rwrist -9.47178
rhand -23.2861 1.92304
rfingers 7.12502
rthumb 3.16678 -28.0332
lclavicle -3.4191e-014 -1.35174e-014
lhumerus -66.6068 -15.3777 86.8475
lradius 56.8911
lwrist 1.1119
lhand -25.8778 -19.8078
lfingers 7.12502
lthumb 0.663776 10.171
rfemur -30.162 -5.05967 25.4099
rtibia 68.4605
rfoot -37.6355 -12.5866
rtoes -48.8114
lfemur -75.4467 9.06497 -20.0088
ltibia 94.783
lfoot -21.6073 -0.517108
ltoes -3.32286
19
root 15.2913 14.468 33.9035 -157.891 -6.44909 184.225
lowerback 23.5755 3.84279 3.72126
upperback 3.20009 5.50339 1.747
thorax -9.39466 2.22357 -1.83985
lowerneck -18.2482 -0.667983 -2.35406
upperneck -9.77571 -2.29311 -4.18709
head -0.149578 -1.88385 -1.0443
rclavicle 8.74653e-015 -3.97569e-015
rhumerus -25.6259 15.955 -88.4721
rradius 101.025
rwrist -9.14218
rhand -22.3671 2.42755
rfingers 7.12502
rthumb 4.0543 -27.5136
lclavicle 8.74653e-015 -3.97569e-015
lhumerus -71.6587 -17.2361 87.9308
lradius 60.0684
lwrist 0.908722
lhand -25.068 -20.2352
lfingers 7.12502
lthumb 1.44592 9.73963
rfemur -27.1775 -5.06038 24.729
rtibia 66.5497
rfoot -37.0695 -10.9672
rtoes -49.5995
lfemur -77.4811 8.99904 -19.4857
ltibia 91.7267
lfoot -21.6494 -1.93738
ltoes -2.66719
20
root 15.1718 14.4768 33.4028 -158.128 -6.09248 184.473
lowerback 22.5591 4.34716 3.6402
upperback 3.11835 6.13689 1.64562
thorax -8.9124 2.56317 -2.02457
lowerneck -18.1928 -1.10809 -2.43315
upperneck -8.99034 -2.69401 -3.94205
head 0.0991316 -2.03468 -0.982603
rclavicle 5.1684e-014 -2.54444e-014
rhumerus -25.6531 17.9759 -87.8286
rradius 104.918
rwrist -8.77669
rhand -21.5705 3.05379
rfingers 7.12502
rthumb 4.82354 -26.8713
lclavicle 5.1684e-014 -2.54444e-014
lhumerus -76.6046 -18.6682 88.9584
lradius 63.3153
lwrist 0.946538
lhand -24.2361 -20.6527
lfingers 7.12502
lthumb 2.24931 9.31519
rfemur -23.9765 -5.186 24.0777
rtibia 64.29
rfoot -36.1538 -9.13992
rtoes -50.328
lfemur -79.0875 8.696 -18.8204
ltibia 88.2216
lfoot -21.4111 -3.05995
ltoes -2.84416
21
root 15.0501 14.4735 32.8929 -158.455 -6.01241 184.691
lowerback 21.5467 4.80151 3.63079
upperback 3.05768 6.72399 1.60271
thorax -8.4064 2.88026 -2.15195
lowerneck -18.0931 -1.58579 -2.55837
upperneck -8.16332 -3.13288 -3.66456
head 0.357402 -2.20051 -0.906683
rclavicle 1.74931e-014 -2.3059e-014
rhumerus -25.7839 19.7313 -86.9593
rradius 108.598
rwrist -8.33182
rhand -20.9099 3.7624
rfingers 7.12502
rthumb 5.46138 -26.1472
lclavicle 1.74931e-014 -2.3059e-014
lhumerus -81.305 -19.6527 89.7755
lradius 66.5653
lwrist 1.25786
lhand -23.3594 -21.0594
lfingers 7.12502
lthumb 3.09605 8.89787
rfemur -20.5663 -5.41914 23.4393
rtibia 61.7284
rfoot -34.8578 -6.97346
rtoes -50.9062
lfemur -80.3818 8.15969 -18.0512
ltibia 84.4098
lfoot -20.8393 -3.86071
ltoes -3.72046
22
root 14.9263 14.4982 32.366 -158.908 -6.21318 184.876
lowerback 20.6036 5.1918 3.68024
upperback 3.02065 7.24077 1.61794
thorax -7.91253 3.16099 -2.21766
lowerneck -17.9513 -2.08433 -2.71725
upperneck -7.30638 -3.59504 -3.36868
head 0.622507 -2.37618 -0.822139
rclavicle 8.18993e-014 -8.74653e-015
rhumerus -26.024 21.2162 -85.9324
rradius 112.012
rwrist -7.78166
rhand -20.3404 4.56574
rfingers 7.12502
rthumb 6.01117 -25.329
lclavicle 8.18993e-014 -8.74653e-015
lhumerus -85.665 -20.1873 90.2461
lradius 69.7752
lwrist 1.84252
lhand -22.4189 -21.4652
lfingers 7.12502
lthumb 4.00425 8.47692
rfemur -16.8085 -5.72138 22.8282
rtibia 58.6815
rfoot -33.0137 -4.3392
rtoes -51.233
lfemur -81.0586 7.41244 -17.2223
ltibia 80.1472
lfoot -19.9898 -4.32512
ltoes -5.18891
23
root 14.8005 14.5316 31.8265 -159.494 -6.64718 185.035
lowerback 19.7347 5.52289 3.77372
upperback 3.02395 7.68434 1.67882
thorax -7.41662 3.40369 -2.23072
lowerneck -17.764 -2.58936 -2.89835
upperneck -6.46628 -4.07299 -3.05583
head 0.87873 -2.56032 -0.729864
rclavicle -8.50798e-014 7.95139e-015
rhumerus -26.3271 22.4388 -84.8091
rradius 115.092
rwrist -7.08663
rhand -19.8845 5.34585
rfingers 7.12502
rthumb 6.45135 -24.5359
lclavicle -8.50798e-014 7.95139e-015
lhumerus -89.5638 -20.313 90.2559
lradius 72.9113
lwrist 2.65325
lhand -21.4041 -21.8249
lfingers 7.12502
lthumb 4.98418 8.09649
rfemur -12.7408 -5.99786 22.2441
rtibia 55.1893
rfoot -30.4647 -1.16686
rtoes -51.1833
lfemur -81.2757 6.50304 -16.3994
ltibia 75.6035
lfoot -18.8163 -4.45214
ltoes -7.08163
24
root 14.673 14.5733 31.275 -160.201 -7.25295 185.189
lowerback 18.947 5.80435 3.89293
upperback 3.06462 8.06195 1.76995
thorax -6.92699 3.61172 -2.20469
lowerneck -17.5171 -3.08899 -3.08701
upperneck -5.68079 -4.55959 -2.7196
head 1.11113 -2.75017 -0.628487
rclavicle -3.02153e-014 6.36111e-015
rhumerus -26.702 23.4063 -83.6806
rradius 117.797
rwrist -6.33032
rhand -19.5636 6.0351
rfingers 7.12502
rthumb 6.76113 -23.837
lclavicle -3.02153e-014 6.36111e-015
lhumerus -92.9208 -20.0902 89.7372
lradius 75.9349
lwrist 3.61884
lhand -20.3501 -22.0741
lfingers 7.12502
lthumb 6.00181 7.82088
rfemur -8.39241 -6.12453 21.7158
rtibia 51.1745
rfoot -26.8457 2.56259
rtoes -50.4804
lfemur -81.0693 5.50291 -15.6422
ltibia 70.8412
lfoot -17.3335 -4.26653
ltoes -9.25725
25
root 14.544 14.6208 30.7111 -161.035 -7.99083 185.351
lowerback 18.2602 6.04145 4.03423
upperback 3.14026 8.37947 1.87765
thorax -6.45567 3.78719 -2.15941
lowerneck -17.232 -3.58056 -3.27441
upperneck -4.94816 -5.05281 -2.34632
head 1.32397 -2.94482 -0.515138
rclavicle -3.73715e-014 -4.37326e-014
rhumerus -27.1614 24.1239 -82.6336
rradius 120.085
rwrist -5.60431
rhand -19.4021 6.56825
rfingers 7.12502
rthumb 6.917 -23.2988
lclavicle -3.73715e-014 -4.37326e-014
lhumerus -95.6828 -19.6015 88.6768
lradius 78.8176
lwrist 4.65572
lhand -19.2985 -22.1776
lfingers 7.12502
lthumb 7.017 7.68611
rfemur -3.78563 -6.00458 21.2927
rtibia 46.6649
rfoot -21.8459 6.40959
rtoes -48.9663
lfemur -80.4814 4.46164 -14.9989
ltibia 66.0159
lfoot -15.6698 -3.83003
ltoes -11.542
26
root 14.4145 14.6678 30.1376 -161.901 -8.74373 185.576
lowerback 17.5975 6.27458 4.17899
upperback 3.21389 8.68983 1.98424
thorax -5.99909 3.95875 -2.11163
lowerneck -16.904 -4.0648 -3.45162
upperneck -4.26417 -5.55418 -1.92124
head 1.51822 -3.14393 -0.386352
rclavicle -6.99722e-014 2.06736e-014
rhumerus -27.7209 24.6152 -81.7565
rradius 121.914
rwrist -5.03472
rhand -19.4249 6.85997
rfingers 7.12502
rthumb 6.89502 -23.0077
lclavicle -6.99722e-014 2.06736e-014
lhumerus -97.8395 -18.9226 87.1195
lradius 81.5383
lwrist 5.69346
lhand -18.3678 -22.1512
lfingers 7.12502
lthumb 7.9154 7.68063
rfemur 0.913813 -5.47893 21.0707
rtibia 41.6932
rfoot -15.3264 9.60375
rtoes -46.729
lfemur -79.6843 3.52371 -14.4979
ltibia 61.2829
lfoot -13.9375 -3.21863
ltoes -13.7789
27
root 14.285 14.7093 29.5552 -162.759 -9.49365 185.881
lowerback 16.9207 6.50474 4.33956
upperback 3.26946 8.99749 2.07552
thorax -5.54937 4.1298 -2.08075
lowerneck -16.5583 -4.54183 -3.6029
upperneck -3.60434 -6.06394 -1.43537
head 1.70668 -3.34709 -0.242832
rclavicle 0 3.4191e-014
rhumerus -28.4043 24.9086 -81.1435
rradius 123.237
rwrist -4.67048
rhand -19.6465 6.904
rfingers 7.12502
rthumb 6.68111 -22.9706
lclavicle 0 3.4191e-014
lhumerus -99.3838 -18.1029 85.1401
lradius 84.1056
lwrist 6.71703
lhand -17.6096 -21.9611
lfingers 7.12502
lthumb 8.64714 7.84182
rfemur 5.61574 -4.50325 21.1398
rtibia 36.3316
rfoot -7.51166 11.4419
rtoes -44.0032
lfemur -78.7796 2.72541 -14.1479
ltibia 56.8176
lfoot -12.2515 -2.55466
ltoes -15.813
28
root 14.1557 14.7435 28.965 -163.563 -10.2452 186.277
lowerback 16.1972 6.72514 4.53554
upperback 3.27923 9.29927 2.13916
thorax -5.11287 4.29969 -2.08711
lowerneck -16.2089 -5.00676 -3.70805
upperneck -2.94685 -6.57737 -0.890379
head 1.89892 -3.55152 -0.0888507
rclavicle 1.13705e-013 -2.70347e-014
rhumerus -29.2208 25.0131 -80.8716
rradius 124.006
rwrist -4.51851
rhand -20.0316 6.70578
rfingers 7.12502
rthumb 6.30932 -23.1803
lclavicle 1.13705e-013 -2.70347e-014
lhumerus -100.339 -17.1651 82.8617
lradius 86.5382
lwrist 7.69532
lhand -17.13 -21.6012
lfingers 7.12502
lthumb 9.10987 8.18207
rfemur 10.2203 -3.10259 21.5892
rtibia 30.727
rfoot 0.956236 11.6553
rtoes -41.2038
lfemur -77.8946 2.09095 -13.9596
ltibia 52.783
lfoot -10.6822 -1.97022
ltoes -17.476
